HIERARCHY
ROOT Hips
{
  OFFSET -125.086 92.215 135.881
  CHANNELS 6 Xposition Yposition Zposition Zrotation Xrotation Yrotation
  JOINT LeftUpLeg
  {
    OFFSET 8.64259 1.95398 -2.38835
    CHANNELS 3 Zrotation Xrotation Yrotation
    JOINT LeftLeg
    {
      OFFSET 43.7702 0 0
      CHANNELS 3 Zrotation Xrotation Yrotation
      JOINT LeftFoot
      {
        OFFSET 40.6238 0 0
        CHANNELS 3 Zrotation Xrotation Yrotation
        JOINT LeftToeBase
        {
          OFFSET 12.7242 0 0
          CHANNELS 3 Zrotation Xrotation Yrotation
          End Site
          {
            OFFSET 0 0 0
          }
        }
      }
    }
  }
  JOINT RightUpLeg
  {
    OFFSET -8.2249 1.95398 -2.59336
    CHANNELS 3 Zrotation Xrotation Yrotation
    JOINT RightLeg
    {
      OFFSET 43.5653 0 0
      CHANNELS 3 Zrotation Xrotation Yrotation
      JOINT RightFoot
      {
        OFFSET 40.6238 0 0
        CHANNELS 3 Zrotation Xrotation Yrotation
        JOINT RightToeBase
        {
          OFFSET 12.7242 0 0
          CHANNELS 3 Zrotation Xrotation Yrotation
          End Site
          {
            OFFSET 0 0 0
          }
        }
      }
    }
  }
  JOINT Spine
  {
    OFFSET 0.165834 0.87714 6.61349
    CHANNELS 3 Zrotation Xrotation Yrotation
    JOINT Spine1
    {
      OFFSET 7.38963 1.71661e-005 0
      CHANNELS 3 Zrotation Xrotation Yrotation
      JOINT Spine2
      {
        OFFSET 11.9445 1.14441e-005 0
        CHANNELS 3 Zrotation Xrotation Yrotation
        JOINT Spine3
        {
          OFFSET 14.7254 4.19617e-005 0
          CHANNELS 3 Zrotation Xrotation Yrotation
          JOINT Spine4
          {
            OFFSET 10.9679 0 0
            CHANNELS 3 Zrotation Xrotation Yrotation
            JOINT RightShoulder
            {
              OFFSET 2.46616 -1.6653 3.69651
              CHANNELS 3 Zrotation Xrotation Yrotation
              JOINT RightArm
              {
                OFFSET 13.0012 0 0
                CHANNELS 3 Zrotation Xrotation Yrotation
                JOINT RightForeArm
                {
                  OFFSET 28.7848 1.52588e-005 0
                  CHANNELS 3 Zrotation Xrotation Yrotation
                  JOINT RightHand
                  {
                    OFFSET 26.5688 1.52588e-005 0
                    CHANNELS 3 Zrotation Xrotation Yrotation
                    End Site
                    {
                      OFFSET 0 0 0
                    }
                  }
                }
              }
            }
            JOINT LeftShoulder
            {
              OFFSET 2.38034 -1.29275 -3.7523
              CHANNELS 3 Zrotation Xrotation Yrotation
              JOINT LeftArm
              {
                OFFSET 16.3182 6.10352e-005 0
                CHANNELS 3 Zrotation Xrotation Yrotation
                JOINT LeftForeArm
                {
                  OFFSET 27.0901 0 0
                  CHANNELS 3 Zrotation Xrotation Yrotation
                  JOINT LeftHand
                  {
                    OFFSET 24.5451 1.52588e-005 0
                    CHANNELS 3 Zrotation Xrotation Yrotation
                    End Site
                    {
                      OFFSET 0 0 0
                    }
                  }
                }
              }
            }
            JOINT Neck
            {
              OFFSET 5.0226 -0.0266342 0
              CHANNELS 3 Zrotation Xrotation Yrotation
              JOINT Head
              {
                OFFSET 6.69363 2.86102e-005 0
                CHANNELS 3 Zrotation Xrotation Yrotation
                End Site
                {
                  OFFSET 0 0 0
                }
              }
            }
          }
        }
      }
    }
  }
}
MOTION
Frames:	18
Frame Time:	0.0416667
-4.84821 97.0117 -7.35763 123.554 -83.3691 123.353 -174.504 1.79656 91.1327 -13.6502 6.29775 2.8631 63.9108 5.23753 -0.719135 32.0762 -0.67704 4.54539 174.485 2.91264 86.4761 -16.2193 -3.25918 -1.04861 65.8295 -3.34751 6.54665 29.4595 0.429714 -5.75333 -0.26151 7.35202 -90.1942 12.169 -0.611665 -0.319654 0.498119 -0.625144 -0.292429 -22.0375 -0.487321 -0.488718 -2.02488 -0.487327 -0.488714 109.849 -52.1563 -70.5135 29.1703 -4.95861 -15.1528 4.98453 -31.4077 -8.7739 -11.0302 -0.60867 1.28265 -74.1396 -45.4665 102.81 -47.3365 -5.82678 -23.4659 4.78411 59.0801 0.010925 -5.71556 0.0930882 -10.6552 13.8623 0.267175 -4.99845 -22.8242 0.244974 7.844 
-4.87256 96.9992 -7.4117 123.096 -83.0924 122.852 -174.571 1.54192 91.0906 -13.0991 4.8107 2.91917 64.1295 5.22514 -1.88684 31.3609 -0.511095 3.10279 174.429 2.8932 86.4143 -16.3501 -3.01391 -1.01765 65.6573 -3.11823 6.97014 30.3358 0.310724 -6.49419 -0.281949 7.37577 -90.1781 12.1216 -0.644616 -0.28419 0.450743 -0.656506 -0.255518 -22.0851 -0.529414 -0.464786 -2.07245 -0.529418 -0.464791 110.137 -52.3313 -70.1045 28.7745 -5.7082 -15.2951 5.46144 -30.2282 -8.22738 -10.3889 -0.410358 -0.602956 -74.49 -45.023 102.277 -46.924 -4.34471 -22.9085 3.64032 51.374 0.00899293 -1.47346 -0.132765 -9.33166 10.269 -1.93412 2.59271 -17.7829 -1.68978 -6.24754 
-4.883 97.0091 -7.43297 122.952 -83.1481 122.761 -174.547 1.57319 91.1205 -13.0831 5.13566 2.91415 64.1294 5.30708 -1.5458 31.4584 -0.545188 3.41734 174.581 3.03049 86.5224 -16.5394 -2.64212 -1.12903 65.7303 -3.0572 7.282 29.8474 0.392485 -6.23263 -0.294494 7.39465 -90.187 12.0837 -0.673727 -0.29919 0.412892 -0.686242 -0.271869 -22.123 -0.552695 -0.487765 -2.11032 -0.552688 -0.487774 110.079 -52.3607 -70.1966 28.6981 -5.75708 -15.5573 5.63309 -29.989 -8.26304 -10.3883 -0.502972 0.469234 -74.3502 -45.3064 102.483 -46.6391 -4.42346 -22.9975 3.5696 51.3532 0.00898885 -1.6591 -0.121568 -9.35409 9.87422 -2.11046 0.613057 -16.301 -1.90235 -2.80535 
-4.89261 97.0089 -7.50154 122.618 -83.1075 122.468 -174.586 1.60215 91.1394 -12.9894 5.26914 2.97016 63.9333 5.2186 -1.45863 31.7326 -0.553429 3.34297 174.584 3.24158 86.5252 -16.8562 -2.32577 -1.09991 65.7619 -2.89433 7.77348 29.7395 0.426526 -6.35703 -0.311385 7.42188 -90.1866 12.0293 -0.707098 -0.293873 0.358473 -0.719401 -0.266144 -22.1775 -0.585757 -0.49388 -2.16487 -0.585753 -0.493888 109.917 -52.3186 -70.4347 28.8422 -5.77582 -15.4836 5.3801 -29.9757 -8.52681 -10.2206 -0.475733 0.242505 -74.4321 -45.2115 102.357 -46.7081 -4.48142 -22.9102 3.65351 51.2206 0.00896293 -1.43925 -0.131921 -9.45056 10.3905 -2.01404 1.46445 -16.9438 -1.82173 -4.23002 
-4.90095 97.0095 -7.57084 122.889 -83.2057 122.628 -174.594 1.6275 91.0532 -12.9677 5.08185 2.90235 64.1404 5.18375 -1.75115 31.0337 -0.566457 3.88524 174.472 3.56876 86.3158 -17.2459 -2.29929 -1.02527 65.7513 -2.70746 8.18193 29.6286 0.4244 -6.0775 -0.291576 7.46497 -90.1807 11.9431 -0.664881 -0.288675 0.272265 -0.67695 -0.259139 -22.2636 -0.547387 -0.475157 -2.25098 -0.547384 -0.475159 109.952 -52.2346 -70.3705 28.8537 -5.80582 -15.5538 5.15394 -30.3295 -8.70194 -10.3602 -0.466372 0.0570009 -74.3995 -45.2567 102.407 -46.7403 -4.36077 -22.9605 3.58934 51.1051 0.00894052 -1.26073 -0.140791 -9.54668 11.3356 -1.6179 3.40303 -18.455 -1.48199 -7.0709 
-4.88739 96.9773 -7.69995 121.263 -83.2685 120.93 -174.649 1.89275 90.9803 -12.907 5.00526 2.84648 64.016 5.05004 -1.88462 30.9616 -0.541218 3.66313 174.422 4.16697 86.151 -17.8071 -2.14126 -0.956292 65.5951 -2.35026 8.67723 30.0521 0.329405 -6.01614 -0.276755 7.51031 -90.1765 11.8525 -0.633333 -0.284212 0.181631 -0.645214 -0.256072 -22.3542 -0.518631 -0.461417 -2.34152 -0.518631 -0.461425 110.105 -52.1182 -70.1218 28.9181 -5.86892 -15.6036 4.94332 -30.2604 -9.05006 -10.3326 -0.491743 0.37067 -74.5832 -45.2892 102.109 -46.8444 -4.40383 -23.1181 3.71009 51.8242 0.00908253 -2.1248 -0.102999 -10.0389 11.0119 -1.78585 2.3328 -17.3936 -1.61663 -5.69962 
-4.92817 96.9484 -7.86099 116.91 -83.2751 116.648 -174.679 2.59725 91.0058 -13.1161 5.60417 2.78662 63.8823 5.0485 -1.17221 31.2656 -0.515121 3.19301 174.551 4.91269 86.2394 -18.2354 -1.61914 -0.922326 65.4663 -2.02783 9.07975 30.1762 0.328673 -6.30666 -0.293478 7.54276 -90.1765 11.7876 -0.666581 -0.281302 0.116781 -0.678317 -0.251699 -22.4191 -0.551221 -0.468635 -2.40649 -0.551222 -0.468642 110.105 -52.1519 -70.1271 29.0081 -5.96334 -15.7279 4.97272 -30.1574 -9.08489 -10.6083 -0.486625 0.159459 -74.5256 -45.4585 102.191 -46.5901 -4.31872 -23.3474 3.67922 51.0706 0.00893387 -2.17587 -0.0996939 -9.71776 11.3314 -1.7794 2.5558 -17.6645 -1.64417 -5.78707 
-4.93746 96.9388 -8.13406 114.356 -82.9748 114.264 -174.78 3.11561 91.0821 -13.3865 5.96848 2.89503 63.8179 5.02487 -1.23136 31.1877 -0.527717 3.38398 174.568 5.2753 86.3575 -18.4022 -1.05134 -0.801206 65.2616 -1.79735 9.43854 30.1009 0.315721 -5.98088 -0.33443 7.64255 -90.2003 11.5878 -0.759064 -0.320803 -0.0829975 -0.77244 -0.287086 -22.6191 -0.62755 -0.534099 -2.6065 -0.627557 -0.534111 109.971 -52.0674 -70.3174 29.1518 -5.95496 -15.9406 4.88458 -30.1578 -9.21654 -10.7196 -0.484559 0.0819732 -74.3374 -45.6199 102.482 -46.1398 -4.22278 -24.0219 3.51513 51.1604 0.0552238 -2.6098 -0.0798754 -9.53143 11.7166 -1.7191 2.91473 -17.4361 -1.67536 -5.91847 
-5.01944 96.8935 -8.55859 113.537 -83.2167 113.575 -174.774 3.93318 91.2098 -14.1003 5.59885 2.87081 64.0418 4.92169 -1.47078 30.865 -0.509687 3.39088 174.811 6.05409 86.556 -18.9809 -0.857028 -0.865205 65.0614 -1.60461 9.67065 30.1203 0.312867 -5.99271 -0.280297 7.77954 -90.2081 11.3138 -0.654707 -0.349138 -0.357028 -0.669437 -0.319998 -22.8927 -0.519521 -0.529771 -2.88007 -0.519507 -0.529765 109.828 -51.9673 -70.5189 29.2195 -5.87026 -16.2633 4.51625 -30.9152 -9.43578 -9.43856 -0.396319 -0.310062 -74.6063 -45.7927 102.041 -45.0962 -3.77288 -24.5826 3.42192 49.4674 -0.63361 -2.73746 -0.0746017 -9.36574 11.6212 -1.78646 3.826 -16.2158 -1.92984 -6.75592 
-5.05708 96.9659 -9.17228 108.586 -82.9586 108.559 -175.143 4.4764 91.0026 -13.2987 5.76833 2.96461 63.1781 4.66189 -1.7019 30.706 -0.500437 3.38102 174.671 6.75612 86.4148 -18.6207 -0.796316 -0.626774 64.294 -1.40218 9.33537 30.3684 0.219289 -5.51081 -0.304284 7.97601 -90.1958 10.9209 -0.696323 -0.323502 -0.749915 -0.709881 -0.292541 -23.2858 -0.566915 -0.51782 -3.27318 -0.566907 -0.517819 109.82 -51.9882 -70.5344 28.6937 -6.20982 -16.5773 3.23651 -30.9502 -11.4824 -8.14099 -0.308436 -0.803912 -75.5385 -44.9432 100.589 -44.4155 -3.23322 -24.4142 5.888 46.5482 -5.1013 -3.36553 -0.0461611 -9.4637 12.6651 -1.89774 4.1553 -15.3796 -2.23812 -6.35032 
-5.16244 96.9144 -10.1375 104.148 -82.8399 104.099 -175.57 5.87269 90.8174 -13.7819 5.41782 3.05569 62.9793 4.47714 -2.07307 30.0989 -0.47757 3.49222 174.88 8.10748 86.4843 -19.0597 -0.732338 -0.632897 63.7301 -1.18071 8.96681 30.7656 0.151266 -5.68527 -0.286564 8.30677 -90.1903 10.2593 -0.657864 -0.321516 -1.41148 -0.671382 -0.292261 -23.9473 -0.53082 -0.50437 -3.93462 -0.530822 -0.504381 109.491 -51.7071 -70.9935 27.9859 -6.65923 -17.9537 2.74872 -29.669 -12.7228 -8.23046 -0.205873 -2.42671 -75.9547 -44.5212 99.9304 -42.2432 -1.50456 -25.6931 7.18858 41.9787 -10.2864 -3.71326 -0.036799 -8.93901 13.7438 -2.13747 4.51627 -12.8165 -2.78832 -5.89443 
-5.23249 96.7933 -11.561 92.6998 -82.491 92.7313 -176.167 8.57781 90.5614 -14.3367 5.93607 3.01553 62.2112 4.33113 -1.36321 30.0592 -0.440737 3.16063 174.906 10.6957 86.4766 -19.5842 -0.787792 -0.247842 63.0523 -1.13428 8.08524 30.818 0.0929715 -5.10362 -0.243891 8.66058 -90.2321 9.55154 -0.590928 -0.415218 -2.11933 -0.608636 -0.388818 -24.6546 -0.438816 -0.573618 -4.64196 -0.43883 -0.573629 108.649 -51.0141 -72.1893 26.8802 -7.04803 -19.8449 2.24283 -26.708 -14.6192 -8.99736 -0.136136 -3.58027 -76.4648 -44.4923 99.1033 -39.7959 0.348649 -28.3522 7.65483 36.1761 -14.6981 -3.4731 -0.0461682 -8.98917 15.5303 -2.23485 6.75502 -10.9458 -3.52297 -7.95479 
-5.31689 96.4784 -13.328 71.4273 -81.4621 71.5188 -177.347 13.7349 90.1772 -15.8831 4.85631 2.95236 61.651 4.2956 -1.91333 29.6748 -0.424488 3.21593 174.814 15.6415 86.2641 -20.9881 -0.937077 0.525426 62.8886 -1.46121 6.96314 30.2213 0.219799 -5.16757 -0.193381 8.96298 -90.2548 8.94656 -0.499263 -0.470151 -2.72438 -0.519473 -0.447714 -25.2592 -0.334886 -0.598465 -5.24661 -0.334894 -0.598466 107.907 -50.311 -73.251 25.5466 -7.22849 -23.0456 2.16301 -23.9778 -16.149 -10.3765 -0.18754 -3.21525 -77.1543 -43.7661 97.9909 -37.3552 2.87227 -31.6119 8.26321 30.1513 -21.3513 -3.42376 -0.0419125 -9.66529 19.0203 -1.72088 9.30768 -10.9514 -3.78015 -11.4253 
-5.32568 95.8362 -15.3185 55.3784 -80.5593 56.2 -177.955 19.8294 90.6224 -20.0934 3.89673 2.81172 62.3862 4.53336 -2.2343 29.3638 -0.42955 3.42385 174.448 20.6105 86.5733 -22.8002 -1.83204 1.71036 62.711 -2.21842 5.68247 30.4161 0.048533 -3.62064 -0.0471044 9.42479 -90.3671 8.02294 -0.254687 -0.710617 -3.64816 -0.285718 -0.698732 -26.1818 -0.0293512 -0.754306 -6.16913 -0.0293482 -0.754308 106.68 -49.0793 -75.0449 24.9614 -6.28368 -27.0066 0.431891 -22.9672 -18.8424 -10.2281 -0.159403 -3.51884 -78.0779 -43.0071 96.4701 -35.9183 4.88303 -36.3572 9.35655 26.1527 -27.1635 -1.10779 -0.148235 -9.64189 19.5766 -2.00723 9.96665 -6.36419 -4.76793 -11.1862 
-5.27796 94.9945 -17.1619 46.2059 -80.0348 46.7839 -178.102 24.4159 90.3841 -23.8284 3.76287 2.27076 62.9993 4.65676 -1.389 29.4959 -0.397063 3.05147 173.507 25.2126 86.1324 -26.0078 -3.9198 2.7299 63.6125 -3.44082 4.00829 30.0861 0.0154362 -2.524 0.0267884 10.0211 -90.3678 6.83075 -0.103752 -0.718981 -4.84041 -0.135286 -0.713722 -27.374 0.11712 -0.716926 -7.36135 0.117121 -0.716921 105.02 -47.6905 -77.5797 24.2987 -5.54914 -32.0457 -0.443728 -20.6448 -21.2416 -12.0559 -0.253905 -2.84515 -79.2508 -42.0267 94.4993 -35.037 6.33889 -41.5628 11.7975 24.6415 -33.3368 -0.175336 -0.200222 -9.94785 19.3763 -1.3409 10.6168 -3.07091 -4.60554 -11.7499 
-5.13847 93.97 -18.7204 37.4284 -78.2229 37.5301 -177.851 29.8274 89.845 -27.6359 4.60072 1.1991 63.7662 5.16858 -0.536029 29.7788 -0.521361 4.06422 172.347 30.9494 85.4193 -29.8972 -6.08282 3.8337 64.5755 -4.40547 2.53357 30.262 -0.0876959 -1.68454 0.0175978 10.4752 -90.3444 5.92275 -0.109398 -0.674426 -5.74836 -0.138976 -0.668969 -28.2821 0.0983468 -0.676137 -8.26949 0.09835 -0.676129 103.791 -45.9591 -79.4927 25.2011 -4.628 -37.6866 -2.80307 -20.0435 -24.811 -12.432 -0.214661 -3.28124 -80.3217 -41.1529 92.6573 -34.8792 7.19273 -47.5114 16.1486 25.5694 -39.1567 -6.04967 0.161509 -11.9144 18.3928 -0.0241582 8.93996 0.272783 -3.03434 -9.90157 
-4.98217 92.4641 -19.9983 31.9528 -75.9988 31.5893 -177.173 36.0169 89.2152 -32.9606 4.89349 0.000224059 65.2261 6.22527 -0.262281 30.2893 -0.529513 3.89752 170.57 37.3775 84.6901 -35.1706 -8.40887 5.243 66.046 -5.34908 1.77476 30.9426 -0.291858 -0.58428 0.0449997 10.8316 -90.3419 5.21003 -0.0515018 -0.670302 -6.46109 -0.0809539 -0.667399 -28.9949 0.152314 -0.654813 -8.98227 0.152329 -0.65479 103.012 -44.0475 -80.7362 25.3101 -4.80373 -42.3371 -4.69837 -17.4411 -30.8499 -12.5038 -0.199435 -3.4382 -81.4898 -38.7918 90.4816 -36.3459 8.99117 -53.3248 21.3981 27.2058 -44.4857 -11.8316 0.584041 -12.5098 16.6724 0.6089 8.66404 4.43793 -2.60212 -10.2715 
-4.77366 90.4443 -20.8246 28.7524 -74.4022 28.6207 -175.881 42.4247 88.9285 -40.7759 5.27939 -0.895716 67.9277 7.8591 -0.563066 31.1774 -0.600388 4.13565 168.192 43.1965 84.922 -41.4309 -10.6002 6.61988 68.3635 -6.85413 1.04943 31.3654 -0.485621 1.09938 0.0902921 11.1351 -90.4118 4.60299 0.0122963 -0.80779 -7.06822 -0.0232807 -0.807574 -29.6015 0.254488 -0.766761 -9.58888 0.254493 -0.766769 102.16 -42.1605 -82.1716 25.08 -5.46352 -46.3625 -6.60951 -15.5576 -37.7229 -13.0066 -0.135453 -4.09695 -82.2128 -37.6099 89.0989 -37.1243 11.6615 -58.1995 24.1942 27.8849 -47.4832 -11.0265 0.511135 -12.2969 14.5598 0.12608 9.88592 9.04439 -3.78519 -11.3641 
